# xmcd
#
# Track frame offsets:
#       150
#       12670
#       26835
#       36462
#       47985
#       59755
#       68872
#       79417
#       94235
#       105742
#       120205
#       131032
#       143705
#       156620
#       169357
#       180457
#       191772
#       201470
#       212367
#       228257
#       242002
#       252550
#       264727
#       278825
#
# Disc length: 3881 seconds
#
# Revision: 0
# Processed by: cddbd v1.5PL3 Copyright (c) Steve Scherf et al.
# Submitted via: WhereIsIt 3.56
#
DISCID=780f2718
DTITLE=Laine, Frankie - Frankie Laine
DYEAR=1992
DGENRE=Country
TTITLE0=High Noon
TTITLE1=Riders In The Sky
TTITLE2=Gunfight At The O.K. Corral
TTITLE3=Mule Train
TTITLE4=Blowing Wild (The Ballad Of Black Gold)
TTITLE5=Rawhide
TTITLE6=Sixteen Tons
TTITLE7=Jezebel
TTITLE8=On The Sunny Side Of The Street
TTITLE9=Jealousy
TTITLE10=Hummingbird
TTITLE11=Granada
TTITLE12=Rain, Rain, Rain
TTITLE13=Moonlight Gambler
TTITLE14=Rose, Rose, I Love You
TTITLE15=Love Is A Golden Ring
TTITLE16=I Believe
TTITLE17=Shine
TTITLE18=That Lucky Old Sun
TTITLE19=That's My Desire
TTITLE20=A Woman In Love
TTITLE21=The Rock Of Gibraltar
TTITLE22=Don't Fence Me In
TTITLE23=Your Cheatin' Heart
EXTD=Sarabandas srl
EXTT0=
EXTT1=
EXTT2=
EXTT3=
EXTT4=
EXTT5=
EXTT6=
EXTT7=
EXTT8=
EXTT9=
EXTT10=
EXTT11=
EXTT12=
EXTT13=
EXTT14=
EXTT15=
EXTT16=
EXTT17=
EXTT18=
EXTT19=
EXTT20=
EXTT21=
EXTT22=
EXTT23=
PLAYORDER=
